<svg width="49" height="49" viewBox="0 0 49 49" fill="none" xmlns="http://www.w3.org/2000/svg">
<path d="M0 0V49H49V0H0ZM26.6656 38.2156C26.6656 42.9844 23.8656 45.1609 19.7859 45.1609C16.1 45.1609 13.9672 43.2578 12.8734 40.95L16.625 38.6859C17.3469 39.9656 18.0031 41.0484 19.5891 41.0484C21.0984 41.0484 22.0609 40.4578 22.0609 38.15V22.4984H26.6656V38.2156ZM37.5594 45.1609C33.2828 45.1609 30.5156 43.1266 29.1703 40.4578L32.9219 38.2922C33.9062 39.9 35.1969 41.0922 37.4609 41.0922C39.3641 41.0922 40.5891 40.1406 40.5891 38.8172C40.5891 37.2422 39.3422 36.6844 37.2313 35.7547L36.0828 35.2625C32.7578 33.8516 30.5594 32.0687 30.5594 28.3172C30.5594 24.8609 33.1953 22.2359 37.2969 22.2359C40.2281 22.2359 42.3281 23.2531 43.8375 25.9219L40.25 28.2188C39.4625 26.8078 38.6094 26.25 37.2859 26.25C35.9406 26.25 35.0875 27.1031 35.0875 28.2188C35.0875 29.5969 35.9406 30.1547 37.9203 31.0188L39.0688 31.5109C42.9844 33.1844 45.1828 34.9016 45.1828 38.7516C45.1828 42.8859 41.9234 45.1609 37.5594 45.1609Z" fill="#FFD43B"/>
</svg>
